PathFileType	4	(X/Y/Z)	/Users/niels/Desktop/University/Third Semester/Perception and Action/Exam/Gymnastics Motion Tracking/Code for Gym Tracking/Analyzed Data/Webcam_Backflip/id4_4_trajectory_Sports2D/id4_4_trajectory_Sports2D_px_person00.trc
DataRate	CameraRate	NumFrames	NumMarkers	Units	OrigDataRate	OrigDataStartFrame	OrigNumFrames
29.714285714285715	29.714285714285715	11	22	m	29.714285714285715	0	105
Frame#	Time	Hip			RHip			RKnee			RAnkle			RBigToe			RSmallToe			RHeel			LHip			LKnee			LAnkle			LBigToe			LSmallToe			LHeel			Neck			Head			Nose			RShoulder			RElbow			RWrist			LShoulder			LElbow			LWrist		
		X1	Y1	Z1	X2	Y2	Z2	X3	Y3	Z3	X4	Y4	Z4	X5	Y5	Z5	X6	Y6	Z6	X7	Y7	Z7	X8	Y8	Z8	X9	Y9	Z9	X10	Y10	Z10	X11	Y11	Z11	X12	Y12	Z12	X13	Y13	Z13	X14	Y14	Z14	X15	Y15	Z15	X16	Y16	Z16	X17	Y17	Z17	X18	Y18	Z18	X19	Y19	Z19	X20	Y20	Z20	X21	Y21	Z21	X22	Y22	Z22
0	0.0	0.913729522864718	-0.6345102441242949	0.0	0.9137359409563871	-0.6328184312764934	0.0	0.9289605222173941	-0.7478591889334212	0.0	0.9171137890540576	-0.8781369835596308	0.0	0.9661811616035885	-0.8984352143127889	0.0	0.9577273734621129	-0.9001276161330865	0.0	0.912040322051498	-0.8984356195584234	0.0	0.9221819203532374	-0.6328178305952323	0.0	0.930633314671202	-0.7461704487502849	0.0	0.9204963465854931	-0.8696924347594405	0.0	0.9678756475487374	-0.8883042523443102	0.0	0.9645034194717184	-0.8866114016842347	0.0	0.9103403470161491	-0.8883019749217808	0.0	0.9577020569654885	-0.45684179660208873	0.0	1.0033534399440318	-0.38407386699409324	0.0	1.001677905124733	-0.4331472696671323	0.0	0.942468420506316	-0.4653222194095699	0.0	0.9391350132207602	-0.5348094727288689	0.0	0.9578670972184404	-0.6009234624201174	0.0	0.9543196533208628	-0.47208251930835726	0.0	0.9679274379917975	-0.528030517447212	0.0	1.0069393998145049	-0.5771859688734494	0.0
1	0.03365384615384615	0.9163541871832994	-0.6301505680444891	0.0	0.9145832255523532	-0.6278817529910752	0.0	0.925291814773405	-0.7462409921389661	0.0	0.9166104778426193	-0.8746597450115801	0.0	0.9639272869312806	-0.895421736341908	0.0	0.9538828373970828	-0.8982931460349757	0.0	0.9104235463839337	-0.8952655361880628	0.0	0.9242876701916002	-0.6283655436150465	0.0	0.9279995238975904	-0.7447945940506188	0.0	0.9193347888689833	-0.8667798267578779	0.0	0.9655993990857437	-0.8865117855510548	0.0	0.9627829255334264	-0.8841460741308902	0.0	0.9084066625114036	-0.8860243945467775	0.0	0.9593652976869608	-0.4523855997689944	0.0	1.0065651582552642	-0.38051957995906754	0.0	1.0050633877210795	-0.42897585210799166	0.0	0.9436296367915271	-0.46112824361344645	0.0	0.9243587276104056	-0.5194006837693874	0.0	0.9279736471512214	-0.572851159023227	0.0	0.9575999154743982	-0.4679141767178928	0.0	0.9560191471386456	-0.5175199035238395	0.0	0.973566254564701	-0.5558806651708768	0.0
2	0.0673076923076923	0.9180788599712765	-0.6251597808342919	0.0	0.9147274082399227	-0.622524024518759	0.0	0.9224163549923388	-0.7439438077005843	0.0	0.9160720225672243	-0.8706442266593032	0.0	0.9623505331475098	-0.8914623919983172	0.0	0.9508607092992468	-0.8953768853350805	0.0	0.9087518613581121	-0.8914041989210955	0.0	0.9255781117229145	-0.6233825642654777	0.0	0.9258474721888751	-0.7425844914847863	0.0	0.9182972725952461	-0.8629937411628692	0.0	0.9639169516633086	-0.883424429840779	0.0	0.9617246454401447	-0.8805409274944365	0.0	0.9066768534426128	-0.8829269163107618	0.0	0.9611629983278023	-0.44806900886581186	0.0	1.010289320795027	-0.37718017812334276	0.0	1.0086416800393057	-0.42496996901994066	0.0	0.9452090869656087	-0.45656583035145704	0.0	0.9110491746439753	-0.5035894277340027	0.0	0.8993463684549218	-0.5440172668157832	0.0	0.9605351490368592	-0.46366120079877127	0.0	0.9446256928291181	-0.5061908075372575	0.0	0.9398004554912743	-0.5341075655238613	0.0
3	0.10096153846153846	0.9182713850912362	-0.6191770345687113	0.0	0.9137452376956742	-0.6164598861271472	0.0	0.9211360588723073	-0.7404313219005403	0.0	0.9155855020869539	-0.8656859205933335	0.0	0.9618782141566781	-0.8859413788897589	0.0	0.9492262546793679	-0.8906859648713004	0.0	0.9071337403082815	-0.8863245364501519	0.0	0.9255400013930187	-0.6174806393205997	0.0	0.9247826451984968	-0.7389091794225859	0.0	0.917546541867582	-0.8577876621621191	0.0	0.9631407974837543	-0.8782615935512361	0.0	0.9616308010506486	-0.8750971499101681	0.0	0.9053232865611297	-0.8783423487864752	0.0	0.9632433162237873	-0.4440622435019431	0.0	1.014932239972426	-0.3743034551396011	0.0	1.0125650541530988	-0.42134837495011973	0.0	0.9475947210991408	-0.45161680461138215	0.0	0.9004380627892005	-0.487522344608283	0.0	0.8733845508784358	-0.515212849816073	0.0	0.9629758361767895	-0.4592985266536355	0.0	0.934447869632646	-0.4936990470870682	0.0	0.9074827731623717	-0.5120062390726321	0.0
4	0.1346153846153846	0.916731418949325	-0.6123025263074463	0.0	0.9115267889698504	-0.6097224888779086	0.0	0.9220836061022607	-0.7354448430288558	0.0	0.9153409525442668	-0.8596190419865081	0.0	0.9626159098253217	-0.8787678373801874	0.0	0.9491799969426935	-0.8841311267564903	0.0	0.9058026827896782	-0.8798287111827289	0.0	0.9240965910079925	-0.6106508193546873	0.0	0.9254312201648222	-0.733545434841042	0.0	0.9172415061123738	-0.8511382986528697	0.0	0.9632839189217095	-0.8710294384977006	0.0	0.9624035540311944	-0.8678335475061002	0.0	0.904361372065967	-0.871993332018568	0.0	0.965670724628082	-0.44055242899585634	0.0	1.0205150625861028	-0.37218270460011016	0.0	1.0168533158097226	-0.4183858888308513	0.0	0.9508948135501136	-0.4466700585818042	0.0	0.8928706138717352	-0.47191685071707307	0.0	0.8512545073933664	-0.48838857838617106	0.0	0.9650672662093905	-0.45497522840779653	0.0	0.926062891354575	-0.4806310099260044	0.0	0.8801200554024571	-0.4905850528211971	0.0
5	0.16826923076923075	0.9136883698700528	-0.605150692482775	0.0	0.908161862022882	-0.6028010277541234	0.0	0.9255712991462778	-0.7290401582861666	0.0	0.9155156546020704	-0.8524831351386156	0.0	0.9643050064309864	-0.870317674714225	0.0	0.9505118686901115	-0.8761257910627315	0.0	0.9049555986186443	-0.8720301446891422	0.0	0.9215582035438783	-0.6034361712699202	0.0	0.9283182030980285	-0.7266662979809619	0.0	0.9174554796125394	-0.8433662956089503	0.0	0.9641720644395797	-0.8623078440397444	0.0	0.9636707151399861	-0.8592967729030485	0.0	0.9036179912950092	-0.8640089920896533	0.0	0.9683624074609306	-0.437859203927495	0.0	1.0265731674995962	-0.3711953825189036	0.0	1.021370127448307	-0.41642624204321665	0.0	0.9547745561538159	-0.4424912353729034	0.0	0.8876247796724102	-0.45798536412582497	0.0	0.8333606617183393	-0.46569144233683524	0.0	0.9670493895370079	-0.4511449054965204	0.0	0.919290760959851	-0.4684664864722413	0.0	0.8600085237417401	-0.47170747757810544	0.0
6	0.20192307692307693	0.9096868948964539	-0.5986825919192968	0.0	0.9039235315187681	-0.5965367039109465	0.0	0.931532106581724	-0.7215518230858614	0.0	0.9161776181139227	-0.8444650126862571	0.0	0.9663936210643167	-0.8612274714842194	0.0	0.9526493630672092	-0.8673192063984501	0.0	0.9046547039265006	-0.8632300412517495	0.0	0.9185078765060295	-0.5967893061713176	0.0	0.9337465930757792	-0.7186581409978646	0.0	0.9181406655554211	-0.8348461096230447	0.0	0.9655376997899889	-0.8528556100679305	0.0	0.9649420819238815	-0.8501652558670449	0.0	0.9028998233523149	-0.8547688495712762	0.0	0.9711736448952976	-0.43647434203528174	0.0	1.0324501394141303	-0.3717418847901184	0.0	1.0258979076645374	-0.41582856675451957	0.0	0.9586637008168144	-0.44001136123315826	0.0	0.8836962555917398	-0.44721238335019814	0.0	0.819279387856217	-0.4489914654769088	0.0	0.9689573410775341	-0.44848295443077496	0.0	0.9133256572175522	-0.45879790679570254	0.0	0.8468172992792452	-0.4575592181246313	0.0
7	0.23557692307692307	0.9054642949496249	-0.5939481037260456	0.0	0.899304912667597	-0.5919064928356931	0.0	0.9395135866785053	-0.7136215386327478	0.0	0.9172731248121223	-0.8359298380296342	0.0	0.9682865243724241	-0.8522283446690645	0.0	0.954848381776691	-0.8584202857963823	0.0	0.904838442494445	-0.8539006787773633	0.0	0.9156931480246919	-0.5917879411413939	0.0	0.9416625848717636	-0.7101022190181767	0.0	0.919226985455717	-0.8259391512445741	0.0	0.9671268006012604	-0.8434882151047861	0.0	0.9658502273687029	-0.8411208996020039	0.0	0.9022440192812201	-0.8448429413039532	0.0	0.9740012528147659	-0.436958855175494	0.0	1.0376231918538488	-0.3741350981315592	0.0	1.0301887056996735	-0.41688590153232424	0.0	0.9620392312865967	-0.44004620911007936	0.0	0.8805048989631367	-0.4411302009368835	0.0	0.8081671999887294	-0.4399173198682144	0.0	0.9705624936861784	-0.4477101915438727	0.0	0.9074601605733653	-0.4529209125662466	0.0	0.8385157210466292	-0.45014705184515164	0.0
8	0.2692307692307692	0.9017820289363957	-0.59184773497888	0.0	0.8949305514518157	-0.5898165972476985	0.0	0.9487210497073816	-0.7062739872927808	0.0	0.9186693144908905	-0.8275629613176716	0.0	0.9695947593764913	-0.8441547981851291	0.0	0.9564872934565692	-0.8502500170975033	0.0	0.9053689528171501	-0.8448255809471881	0.0	0.9137915416712682	-0.5893947984395629	0.0	0.951498173337024	-0.7019734189650477	0.0	0.9207121678646858	-0.8172169695687321	0.0	0.9687924290439908	-0.8352073405063363	0.0	0.9663643930394366	-0.8330144329416438	0.0	0.9019473715848761	-0.8351168551845501	0.0	0.9767592508743397	-0.4397905269946802	0.0	1.0417044674692488	-0.378512733345091	0.0	1.0339398819223666	-0.41976851994763137	0.0	0.9645072937142316	-0.44315467669510733	0.0	0.8779343740464944	-0.44119151576002247	0.0	0.7994288068503902	-0.440069446087428	0.0	0.9715446629637268	-0.4494495837624375	0.0	0.9015007710983057	-0.45208647637692023	0.0	0.832842131223786	-0.4511893956512086	0.0
9	0.30288461538461536	0.8991720215459535	-0.593009363717573	0.0	0.8913687952821093	-0.5909682896703649	0.0	0.9582078583279227	-0.7008390134779725	0.0	0.9202188742685692	-0.8205131713680055	0.0	0.9702651825619532	-0.8380232553613233	0.0	0.9573565018026167	-0.8438530846513999	0.0	0.9061056784256462	-0.8371990378672991	0.0	0.9130405287510795	-0.5903131193831878	0.0	0.9621318759396915	-0.6956911787688167	0.0	0.9225856738701278	-0.8097537272282979	0.0	0.9704996788641249	-0.8292387450659615	0.0	0.9667849122312195	-0.8269764143573883	0.0	0.9022781493939973	-0.8269300687420572	0.0	0.9792981382339886	-0.4452354804758702	0.0	1.044273427043397	-0.3848249229943231	0.0	1.0367661335467173	-0.42452512807215337	0.0	0.9657893052772776	-0.4496398265353171	0.0	0.8761797900214766	-0.4486320127845369	0.0	0.7933790314376302	-0.4510783740806361	0.0	0.9716976471185264	-0.45412013745117835	0.0	0.8958292294506109	-0.45759869532119735	0.0	0.8286098934949699	-0.4621109880743232	0.0
10	0.3365384615384615	0.8977629723313983	-0.597836048317545	0.0	0.8889828162412831	-0.5958534333553224	0.0	0.9670783115844319	-0.6987262854765541	0.0	0.9217926997426023	-0.8163573335367379	0.0	0.9705116662521643	-0.8350571892302814	0.0	0.9576902526318235	-0.8405129926828127	0.0	0.9069690689589048	-0.8325486463048959	0.0	0.9131247373054655	-0.5949844904430426	0.0	0.9721191824095722	-0.692868137294862	0.0	0.9247158225678935	-0.8052190373964361	0.0	0.9722446844043348	-0.8269688827401812	0.0	0.9675294523855413	-0.8243949012007156	0.0	0.9032189384687523	-0.8220519970467252	0.0	0.981340854518186	-0.4533027951256281	0.0	1.0448721333328361	-0.39289721774312697	0.0	1.0382317542880828	-0.43115236955941705	0.0	0.9657371438820042	-0.4595597122506034	0.0	0.8756585079294119	-0.46423759196953834	0.0	0.7915714848743715	-0.47422311800728423	0.0	0.9710292105659927	-0.4619034747408844	0.0	0.8914505488344587	-0.47049836614347096	0.0	0.8266763172351657	-0.4837490163200402	0.0
